<?xml version="1.0" encoding="UTF-8" standalone="no"?>
<svg
   fill="none"
   version="1.1"
   id="svg8"
   sodipodi:docname="search.svg"
   width="487"
   height="106"
   inkscape:export-filename="/home/prabhanshu/Downloads/search.png"
   inkscape:export-xdpi="96"
   inkscape:export-ydpi="96"
   inkscape:version="1.1.2 (1:1.1+202205011111+08b2f3d93c)"
   xmlns:inkscape="http://www.inkscape.org/namespaces/inkscape"
   xmlns:sodipodi="http://sodipodi.sourceforge.net/DTD/sodipodi-0.dtd"
   xmlns="http://www.w3.org/2000/svg"
   xmlns:svg="http://www.w3.org/2000/svg">
  <defs
     id="defs12" />
  <sodipodi:namedview
     id="namedview10"
     pagecolor="#ffffff"
     bordercolor="#666666"
     borderopacity="1.0"
     inkscape:pageshadow="2"
     inkscape:pageopacity="0.0"
     inkscape:pagecheckerboard="0"
     showgrid="false"
     inkscape:zoom="4.46"
     inkscape:cx="447.64574"
     inkscape:cy="116.25561"
     inkscape:window-width="1920"
     inkscape:window-height="1016"
     inkscape:window-x="0"
     inkscape:window-y="0"
     inkscape:window-maximized="1"
     inkscape:current-layer="svg8" />
  <path
     d="m 116.18371,83.11839 c 4.03308,0 7.42678,-1.374312 10.16953,-4.122863 2.83311,-2.748503 4.2502,-6.691668 4.2502,-11.839959 0,-5.153579 -1.41709,-9.054426 -4.2502,-11.718417 -2.74806,-2.748515 -6.13127,-4.122883 -10.16953,-4.122883 -3.9483,0 -7.33653,1.374368 -10.1696,4.122883 -2.8331,2.748539 -4.24966,6.654746 -4.24966,11.718417 0,5.063731 1.41656,9.012134 4.24966,11.839959 2.83307,2.748551 6.2213,4.122863 10.1696,4.122863 z m 0,-49.822974 c 9.69903,0 17.77055,3.171325 24.20913,9.524829 6.52202,6.353462 9.77774,14.461655 9.77774,24.335323 0,9.868443 -3.25572,18.024279 -9.77774,24.462205 -6.44383,6.348201 -14.51539,9.524887 -24.21457,9.524887 -9.60913,0 -17.680529,-3.218965 -24.203036,-9.65692 -6.522579,-6.438055 -9.783776,-14.546368 -9.783776,-24.330172 0,-9.783858 3.261197,-17.855052 9.783776,-24.208507 6.522507,-6.432715 14.588406,-9.651645 24.208476,-9.651645 z M 182.339,99.213303 H 162.77268 V 6 H 182.339 Z M 228.96009,83.11839 c 4.03821,0 7.42519,-1.374312 10.17518,-4.122863 2.83287,-2.748503 4.24837,-6.691668 4.24837,-11.839959 0,-5.153579 -1.4155,-9.054426 -4.24837,-11.718417 -2.74999,-2.748515 -6.13697,-4.122883 -10.16986,-4.122883 -3.94787,0 -7.34216,1.374368 -10.17509,4.122883 -2.83305,2.748539 -4.24563,6.654746 -4.24563,11.718417 0,5.063731 1.41258,9.012134 4.24563,11.839959 2.83293,2.748551 6.22722,4.122863 10.17509,4.122863 z m 0,-49.822974 c 9.69902,0 17.77047,3.171325 24.20793,9.524829 6.52298,6.353462 9.77893,14.461655 9.77893,24.335323 0,9.868443 -3.25595,18.024279 -9.77893,24.462205 -6.43746,6.348201 -14.50891,9.524887 -24.20793,9.524887 -9.61093,0 -17.6768,-3.218965 -24.20457,-9.65692 -6.52078,-6.438055 -9.77728,-14.546368 -9.77728,-24.330172 0,-9.783858 3.2565,-17.855052 9.77728,-24.208507 6.52777,-6.432715 14.58862,-9.651645 24.20989,-9.651645 z"
     fill="#000000"
     id="path2"
     style="stroke-width:5.28554" />
  <path
     d="m 282.13279,7.9292795 h 34.11986 c 8.83726,0 15.79341,2.2728505 20.85794,6.8238785 5.06303,4.545704 7.59458,10.428637 7.59458,17.638322 0,4.545756 -1.28956,8.626272 -3.86226,12.231139 -2.48465,3.604842 -5.66836,6.052103 -9.52605,7.341887 4.46086,1.025433 8.28342,3.472645 11.45463,7.336512 3.17701,3.774034 4.76708,8.457135 4.76708,14.033489 0,7.553362 -2.66284,13.774612 -7.98053,18.669135 -5.238,4.804709 -12.10419,7.209661 -20.60318,7.209661 h -36.82207 z m 19.82872,36.5665465 h 11.07204 c 3.60462,0 6.43806,-0.861662 8.494,-2.574187 2.147,-1.802411 3.22429,-4.249706 3.22429,-7.341882 0,-3.0022 -1.03489,-5.36499 -3.09117,-7.082757 -2.0614,-1.797199 -5.0225,-2.695718 -8.87998,-2.695718 h -10.82625 v 19.694544 z m 0,38.109926 h 12.74262 c 3.95314,0 7.04103,-0.951488 9.27069,-2.833198 2.23181,-1.976888 3.34683,-4.593303 3.34683,-7.854508 0,-3.171484 -1.11024,-5.75089 -3.34683,-7.727703 -2.22966,-1.971636 -5.32234,-2.960042 -9.27069,-2.960042 h -12.7377 v 21.375451 z m 99.41788,16.607551 c -0.33816,-1.548642 -0.51351,-3.694618 -0.51351,-6.437936 -1.5423,2.574096 -3.90523,4.545664 -7.08341,5.920053 -3.17108,1.28963 -6.52083,1.93466 -10.0419,1.93466 -7.54811,0 -13.51473,-2.362852 -17.89081,-7.08294 -4.29358,-4.809985 -6.43962,-10.772262 -6.43962,-17.897468 V 35.229968 h 19.57298 v 36.307496 c 0,3.261217 0.85684,5.920021 2.57517,7.98136 1.79615,2.061464 4.37675,3.092185 7.72223,3.092185 3.26179,0 5.83451,-0.988424 7.72777,-2.95997 1.97129,-2.061554 2.9593,-4.725551 2.9593,-7.981485 V 35.219336 h 19.56815 v 52.529395 c 0,4.202064 0.21064,8.023678 0.64384,11.459323 H 401.37939 Z M 431.47144,81.057 448.07907,78.096969 c 0.16792,2.404969 1.07255,4.46118 2.7053,6.184319 1.71346,1.628005 4.16049,2.441932 7.33729,2.441932 2.40525,0 4.24867,-0.512627 5.53317,-1.543373 1.28977,-1.115336 1.9342,-2.447247 1.9342,-3.99074 0,-2.574154 -2.10212,-4.33428 -6.30975,-5.280406 l -7.33768,-1.675592 c -6.52256,-1.374218 -11.33264,-3.773938 -14.41847,-7.20969 -3.09303,-3.514933 -4.63634,-7.680116 -4.63634,-12.484832 0,-5.919932 2.31482,-10.941329 6.95174,-15.064231 4.71913,-4.122803 10.60299,-6.184309 17.63701,-6.184309 8.32619,0 14.54596,2.019142 18.66916,6.057444 4.2078,3.943176 6.52256,8.282762 6.9509,13.002835 l -16.22177,2.960029 c -0.25835,-2.320416 -1.1576,-4.20749 -2.69992,-5.666231 -1.45854,-1.458888 -3.60493,-2.188341 -6.43839,-2.188341 a 7.9285559,7.9285548 0 0 0 -4.89428,1.543383 4.7729931,4.772991 0 0 0 -2.0614,3.990773 c 0,2.579425 1.67537,4.16507 5.02196,4.767697 l 8.49907,1.670261 c 6.4376,1.289796 11.33228,3.736944 14.67704,7.341804 3.34598,3.604849 5.02209,7.849336 5.02209,12.74386 0,5.920022 -2.23671,11.031345 -6.69798,15.323263 -4.45917,4.202092 -10.72852,6.305836 -18.79443,6.305836 -4.71991,0 -8.92761,-0.68728 -12.61811,-2.061388 -3.60374,-1.374342 -6.39484,-3.129213 -8.36635,-5.275139 A 31.17511,31.175086 0 0 1 433.14718,87.235951 19.594045,19.594089 0 0 1 431.47144,81.057 Z"
     fill="#65d36e"
     id="path4"
     style="stroke-width:5.28554" />
  <path
     d="M 78.31703,7.5698588 91.17185,21.122305 63.596359,50.500375 50.974038,37.12752 78.31703,7.5645741 Z M 37.421528,59.45431 V 99.181671 H 58.918397 V 55.246927 L 16.854782,9.9061353 4,23.696557 Z"
     fill="#000000"
     id="path6"
     style="stroke-width:5.28554" />
</svg>
